<?xml version="1.0" encoding="UTF-8" standalone="no"?>
<!-- Created with Inkscape (http://www.inkscape.org/) -->

<svg
   width="210mm"
   height="148mm"
   viewBox="0 0 210 148"
   version="1.1"
   id="svg1"
   sodipodi:docname="acute-logo-Icon-bigC-path.svg"
   inkscape:version="1.4.3 (0d15f75, 2025-12-25)"
   xmlns:inkscape="http://www.inkscape.org/namespaces/inkscape"
   xmlns:sodipodi="http://sodipodi.sourceforge.net/DTD/sodipodi-0.dtd"
   xmlns="http://www.w3.org/2000/svg"
   xmlns:svg="http://www.w3.org/2000/svg">
  <sodipodi:namedview
     id="namedview1"
     pagecolor="#ffffff"
     bordercolor="#000000"
     borderopacity="0.25"
     inkscape:showpageshadow="2"
     inkscape:pageopacity="0.0"
     inkscape:pagecheckerboard="0"
     inkscape:deskcolor="#d1d1d1"
     inkscape:document-units="mm"
     inkscape:zoom="1.4702524"
     inkscape:cx="187.04271"
     inkscape:cy="239.0746"
     inkscape:window-width="2560"
     inkscape:window-height="1369"
     inkscape:window-x="-8"
     inkscape:window-y="-8"
     inkscape:window-maximized="1"
     inkscape:current-layer="layer1"
     showgrid="false" />
  <defs
     id="defs1">
    <rect
       x="112.54053"
       y="527.11292"
       width="566.16083"
       height="159.1993"
       id="rect1" />
    <rect
       x="112.54053"
       y="527.11292"
       width="555.64569"
       height="58.105354"
       id="rect1-1" />
    <rect
       x="112.54053"
       y="527.11292"
       width="903.2099"
       height="163.52043"
       id="rect2" />
    <rect
       x="112.54053"
       y="527.11292"
       width="903.2099"
       height="163.52043"
       id="rect4" />
    <rect
       x="112.54053"
       y="527.11292"
       width="571.56226"
       height="170.00214"
       id="rect5" />
  </defs>
  <g
     inkscape:label="Layer 1"
     inkscape:groupmode="layer"
     id="layer1">
    <g
       id="g9"
       transform="translate(-43.51928,-12.979434)"
       style="stroke:#000000;stroke-opacity:1;stroke-width:0.35277778;stroke-dasharray:none">
      <path
         style="font-size:105.272px;font-family:'Arial Rounded MT Bold';-inkscape-font-specification:'Arial Rounded MT Bold, ';text-align:center;letter-spacing:20px;white-space:pre;fill:#ff8000;stroke-width:0.229325"
         d="m 429.08402,599.35684 q 0,3.59816 -1.79908,7.81315 -1.74768,4.16359 -5.55145,8.22438 -3.80378,4.00938 -9.71505,6.52809 -5.91127,2.51872 -13.77583,2.51872 -5.96267,0 -10.84589,-1.13085 -4.88322,-1.13085 -8.89261,-3.49536 -3.95798,-2.41591 -7.29913,-6.32249 -2.98134,-3.54676 -5.08883,-7.91596 -2.1075,-4.4206 -3.18695,-9.40663 -1.02804,-4.98603 -1.02804,-10.58888 0,-9.09822 2.62151,-16.29455 2.67293,-7.19632 7.60755,-12.28516 4.93463,-5.14023 11.56553,-7.81315 6.6309,-2.67293 14.13564,-2.67293 9.14962,0 16.29455,3.64957 7.14492,3.64957 10.9487,9.04681 3.80377,5.34585 3.80377,10.12627 0,2.62152 -1.85048,4.62621 -1.85049,2.00469 -4.47201,2.00469 -2.92993,0 -4.4206,-1.38787 -1.43926,-1.38786 -3.23835,-4.78041 -2.98133,-5.60286 -7.04212,-8.37859 -4.00938,-2.77572 -9.92065,-2.77572 -9.40663,0 -15.00949,7.14492 -5.55145,7.14493 -5.55145,20.30393 0,8.7898 2.46731,14.64967 2.46732,5.80846 6.99072,8.687 4.52341,2.87853 10.58889,2.87853 6.5795,0 11.1029,-3.23835 4.57481,-3.28975 6.88792,-9.61224 0.97664,-2.98134 2.41591,-4.83182 1.43926,-1.90189 4.62621,-1.90189 2.72432,0 4.67761,1.90189 1.95329,1.90189 1.95329,4.72902 z"
         id="text1"
         transform="matrix(1.5473035,0,0,1.5294067,-463.42779,-808.38594)"
         aria-label="C" />
    </g>
    <path
       id="path90"
       d="m 49.08915,72.729816 c 2.975738,-3.14353 7.355442,-14.721169 9.440846,-19.268671 0.499951,-1.085511 1.537515,-1.736132 2.732609,-1.712162 1.195093,0.02397 2.205274,0.712259 2.6607,1.818316 l 9.906563,24.004512 c 2.941503,7.129441 5.55768,9.211431 8.920375,-0.215732 3.616079,-10.129152 4.859111,-14.08767 7.067799,-20.285697 7.574603,-21.254778 11.783098,-20.518549 19.494668,-2.301146 4.78721,11.310543 9.94425,22.586843 18.41945,8.653267 l 3.36953,-5.537132 c 2.43812,-4.009883 4.32149,-3.006556 5.36935,-0.05478 9.81411,27.603476 59.57783,20.9832 55.89181,24.877714 l -20.44322,0.07533 c -15.58752,0.05822 -29.05881,3.605812 -34.61649,-11.129054 -3.801,-10.074362 -4.00304,-4.924179 -12.27962,14.18355 C 119.02067,99.69294 115.67168,95.90564 107.86765,71.760734 99.012341,51.814053 101.10462,48.605461 89.735857,77.246508 85.410944,88.132429 82.130434,96.36451 79.955992,97.04253 77.350082,97.85409 73.603867,94.994783 68.590651,82.872673 59.235405,60.241314 61.259179,60.415955 53.523644,75.18164 c -2.931226,5.595346 -6.047365,7.054107 -12.259079,7.465028 -2.578519,0.171215 -19.837112,0.160942 -23.689476,0.19176 -2.200006,-2.70206 23.593592,-1.746404 31.514061,-10.108604"
       style="display:inline;fill:#140642;fill-opacity:1;fill-rule:nonzero;stroke:#ffffff;stroke-width:0.35277778;stroke-opacity:1;stroke-dasharray:none"
       sodipodi:nodetypes="ccscccccccccccccccccccc" />
  </g>
</svg>
